<?xml version="1.0" encoding="UTF-8" standalone="no"?>
<!DOCTYPE svg PUBLIC "-//W3C//DTD SVG 1.1//EN" "http://www.w3.org/Graphics/SVG/1.1/DTD/svg11.dtd">
<svg id="selfie" width="100%" height="100%" viewBox="0 0 160 160" version="1.1" xmlns="http://www.w3.org/2000/svg" xmlns:xlink="http://www.w3.org/1999/xlink" xml:space="preserve" xmlns:serif="http://www.serif.com/" style="fill-rule:evenodd;clip-rule:evenodd;stroke-linejoin:round;stroke-miterlimit:2;">
    <g transform="matrix(1,0,0,1,-164.474,-159.386)">
        <g>
            <path d="M267.688,243.464C273.526,243.464 278.274,238.721 278.274,232.893C278.274,227.074 273.53,222.332 267.688,222.322C261.86,222.322 257.121,227.063 257.121,232.893C257.119,238.72 261.859,243.464 267.688,243.464Z" style="fill:rgb(93,91,91);fill-opacity:0.79;fill-rule:nonzero;"/>
            <path d="M221.242,243.464C227.079,243.464 231.826,238.721 231.826,232.893C231.826,227.074 227.082,222.332 221.242,222.322C215.413,222.322 210.672,227.063 210.672,232.893C210.672,238.72 215.413,243.464 221.242,243.464Z" style="fill:rgb(93,91,91);fill-opacity:0.79;fill-rule:nonzero;"/>
            <path d="M225.202,266.445C223.849,267.777 223.623,269.875 224.66,271.463C228.204,276.895 235.794,280.268 244.465,280.268C253.147,280.268 260.736,276.893 264.266,271.459C265.301,269.869 265.071,267.768 263.714,266.439C262.36,265.111 260.257,264.926 258.686,265.992C255.325,268.283 250.139,269.596 244.465,269.596C238.808,269.596 233.615,268.279 230.228,265.988C228.655,264.925 226.552,265.115 225.202,266.445Z" style="fill:rgb(93,91,91);fill-opacity:0.79;fill-rule:nonzero;"/>
            <path d="M215.597,298.732C205.438,302.982 196.496,309.562 189.43,317.794L302.772,317.794C295.304,309.101 285.749,302.253 274.873,298.044C299.37,286.567 316.388,261.685 316.388,232.892C316.388,193.238 284.128,160.978 244.474,160.978C228.114,160.978 213.021,166.48 200.924,175.716C193.956,173.511 189.864,167.136 189.864,167.136C190.637,172.591 193.342,176.62 196.343,179.511C195.78,180.019 195.235,180.546 194.688,181.072C187.996,179.933 183.228,175.064 183.228,175.064C184.873,179.642 187.768,182.83 190.852,185.041C179.485,197.763 172.56,214.53 172.56,232.893C172.559,262.279 190.285,287.589 215.597,298.732ZM198.37,194.597C206.155,201.766 223.864,206.776 244.473,206.776C265.084,206.776 282.791,201.766 290.579,194.597C299.225,204.992 304.437,218.343 304.437,232.892C304.437,265.958 277.538,292.855 244.471,292.855C211.407,292.855 184.507,265.959 184.507,232.892C184.508,218.343 189.72,204.992 198.37,194.597Z" style="fill:rgb(93,91,91);fill-opacity:0.79;fill-rule:nonzero;"/>
        </g>
    </g>
</svg>
